<svg width="61" height="99" viewBox="0 0 61 99" fill="none" xmlns="http://www.w3.org/2000/svg">
<path d="M50.1385 98.0524C33.5779 99.313 17.755 99.2925 1.72358 98.0123C0.354279 97.9029 -0.758495 95.957 0.657028 94.0778C17.3429 95.8923 33.8946 95.8995 51.3478 94.1323C52.5196 96.1981 51.5043 97.9485 50.1385 98.0524Z" fill="#31445B"/>
<path d="M2.07185 85.6363C1.09671 87.9029 0.564299 90.4412 0.461256 92.9663C0.411202 94.193 1.19409 95.2442 2.22834 95.3776C10.2756 96.4156 42.14 97.1517 49.8567 95.5605C50.8117 95.3636 51.4978 94.3775 51.4925 93.2332C51.4799 90.5221 50.7612 87.8527 49.447 85.2572L2.07185 85.6363Z" fill="#4C5C75"/>
<path d="M9.60449 88.8864V93.5384C18.9931 94.0428 34.6142 94.3331 44.0005 93.7716V88.6108L9.60449 88.8864Z" fill="#E9E7FC"/>
<path d="M5.61381 34.0673C8.57672 54.0355 15.3413 69.2641 25.623 79.0434C26.2684 79.6572 27.2849 79.6666 27.9435 79.067C38.7469 69.2319 46.6786 54.2738 48.1848 25.0839C48.2057 24.6788 48.1074 24.2746 47.9037 23.9239L45.5975 19.952C45.3283 19.4883 44.7687 19.2797 44.2616 19.454L34.8508 22.689C34.5843 22.7806 34.3323 22.519 34.4339 22.2561L35.4588 19.6035C35.5332 19.4107 35.363 19.2106 35.161 19.2544C25.001 21.4544 15.5704 25.9707 6.58412 31.8984C5.86664 32.3716 5.48765 33.2171 5.61381 34.0673Z" fill="white"/>
<path d="M47.9895 86.5783C32.2406 87.4917 17.2536 87.6427 3.46495 86.5946C1.68392 86.4592 1.37232 83.9591 2.15529 82.3455H49.4575C49.6365 83.06 49.723 83.7745 49.7169 84.489C49.7073 85.6111 48.939 86.5233 47.9895 86.5783Z" fill="#31445B"/>
<path d="M49.4574 82.3454C49.4574 83.936 2.15527 83.9457 2.15527 82.3454C2.15527 81.6782 12.7442 80.4822 25.8064 80.4822C38.8685 80.4822 49.4574 81.6782 49.4574 82.3454Z" fill="#4C5C75"/>
<path d="M40.4655 81.1888C40.5608 81.3477 40.4655 81.5699 40.275 81.6015C37.9255 81.7604 26.7178 82.4271 11.4143 81.4428C11.2872 81.411 11.2556 81.2841 11.319 81.1888L11.7953 80.7444C13.3675 78.9474 4.11586 74.9022 0.270039 38.2947C0.26121 38.18 0.111328 36.7269 0.111328 36.6118V21.9751C0.111328 21.1814 0.555681 20.4194 1.25428 20.0384C11.1603 14.6091 26.3369 10.6086 37.4494 10.545C45.1328 10.4816 50.8795 12.3548 51.5464 16.9268C51.578 17.0857 51.578 17.2126 51.578 17.3713C53.8376 39.3823 50.4343 60.892 40.0845 79.8553C39.9258 80.1411 39.9575 80.4903 40.148 80.7762L40.4655 81.1888Z" fill="#FFB961"/>
<path d="M26.3467 81.9595H26.3593V81.9721L26.3467 81.9595Z" fill="#51383C"/>
<path d="M27.0031 79.9507C26.6815 80.004 15.7895 81.8083 16.4621 81.6969C8.23893 67.7904 5.22264 51.7885 5.57185 34.1037C5.57185 33.6274 5.60363 33.1194 5.60363 32.6113L27.0031 79.9507Z" fill="#F3A250"/>
<path d="M26.3467 79.9507L36.8872 81.6924C45.344 67.4047 48.2753 50.8962 47.7461 32.6113L26.3467 79.9507Z" fill="#F3A250"/>
<path d="M48.4034 22.3879C47.816 43.6946 42.3066 64.9108 27.2898 79.7919C27.004 80.0458 26.5594 80.0458 26.2738 79.7601C12.6395 65.8865 6.50585 50.4094 5.60449 32.6113C13.3515 27.3726 23.3528 21.7528 36.4972 18.7048C33.0506 23.7537 34.1295 22.4539 45.1015 18.292L48.4034 22.3879Z" fill="#E3E7F0"/>
<path d="M51.9528 22.3234C51.5808 22.0606 51.0743 21.7853 50.7737 21.5856C49.5294 20.7533 48.0245 20.2089 46.3198 19.9146L45.7481 19.2399C45.3761 18.8006 44.7603 18.6577 44.2327 18.8868L42.4924 19.6477C29.6664 19.8312 9.18559 29.8699 0.278519 38.2996C0.0243891 35.9428 0.133624 38.0648 0.106179 23.3995C0.106179 22.5882 0.54546 21.8357 1.25802 21.4469C17.5036 12.5873 48.2572 7.44291 51.5934 17.3798C51.755 19.1852 51.8833 21.0403 51.9528 22.3234Z" fill="#F3A250"/>
<path d="M51.8753 21.0433C42.4043 12.06 11.1391 26.4808 0.146393 37.007C0.071046 36.3403 0.133342 37.8662 0.106445 21.9808C0.106445 21.1694 0.545726 20.417 1.25829 20.0281C18.0564 10.8682 49.8807 5.71864 51.5538 16.9279C51.6799 18.3004 51.7871 19.6729 51.8753 21.0433Z" fill="#FFD06C"/>
<path d="M41.0928 13.5579C41.1369 14.1085 39.9199 15.5294 38.6777 16.9692C25.5222 18.6107 12.6146 24.4182 0.106445 33.0022V27.2767C0.276684 26.4234 0.793758 25.6667 1.55043 25.2001C13.8505 17.6292 26.9346 13.8437 41.0928 13.5579Z" fill="#EF7B56"/>
<path d="M41.0928 12.8566C41.1369 13.4073 39.9199 14.8281 38.6777 16.2679C25.5222 17.9094 12.6146 23.7169 0.106445 32.3009V26.5754C0.276684 25.7221 0.793758 24.9654 1.55043 24.4988C13.8505 16.9279 26.9346 13.1424 41.0928 12.8566Z" fill="#F3A250"/>
<path d="M1.48828 24.5282C12.7338 16.9409 26.1396 13.1283 39.8525 12.8782C25.4924 13.9503 14.3417 16.8669 1.48828 24.5282Z" fill="white"/>
<path d="M29.185 27.7396L29.0381 27.8496L29.0748 27.7761L29.185 27.7396Z" fill="#FFB961"/>
<g opacity="0.4">
<path d="M51.8649 29.4045C51.6211 29.0851 44.0137 19.1168 44.4989 19.7526C44.1798 19.9214 27.6012 28.6925 28.6557 28.1346C28.8807 27.817 31.0396 24.7689 30.8146 25.0866L39.8317 13.8154L37.4505 10.545C45.1339 10.4816 50.8807 12.3548 51.5475 16.9268C51.5791 17.0857 51.5791 17.2126 51.5791 17.3713C52.3011 24.4049 51.9294 26.1637 51.8649 29.4045Z" fill="#8A4852"/>
</g>
<path d="M44.4521 8.32778L50.2435 0.00012207L46.409 13.6716L44.4521 8.32778Z" fill="#FFDE9B"/>
<path d="M50.6926 10.1471C50.3656 10.4162 46.0824 13.9406 46.4094 13.6716L50.2439 0.00012207L50.4012 2.84339L50.6926 10.1471Z" fill="#FFB961"/>
<path d="M50.6921 10.1471L47.7129 12.6106L50.4008 2.84338L50.6921 10.1471Z" fill="#F3A250"/>
<path d="M46.3906 13.6797L50.7178 10.1798L60.6359 13.1576L46.3906 13.6797Z" fill="#FFDE9B"/>
<path d="M60.6357 13.1577L58.0956 14.1261L51.3346 16.5616L47.8655 14.5504L46.4092 13.6716L60.6357 13.1577Z" fill="#FFB961"/>
<path d="M58.0954 14.126L51.3344 16.5615L47.8652 14.5502L58.0954 14.126Z" fill="#F3A250"/>
<path d="M50.9728 27.0118L49.3598 24.8237L44.7305 18.7726L45.9358 14.9759L46.4092 13.6715L50.9728 27.0118Z" fill="#FFB961"/>
<path d="M49.3598 24.8237L44.7305 18.7727L45.9358 14.976L49.3598 24.8237Z" fill="#F3A250"/>
<path d="M46.4092 13.6715L51.3346 16.5615L51.0126 27.0004L46.4092 13.6715Z" fill="#FFDE9B"/>
<path d="M46.4087 13.6715L40.8062 13.7185L31.3262 25.8834L44.73 18.7726L46.4087 13.6715Z" fill="#FFDE9B"/>
<path d="M46.4095 13.6715L31.3193 25.9042L33.1698 23.2898L40.7961 13.7373L44.768 13.7308L46.4095 13.6715Z" fill="#FFB961"/>
<path d="M44.7681 13.7308L33.1699 23.2899L40.7962 13.7373L44.7681 13.7308Z" fill="#F3A250"/>
<path d="M44.4522 8.32779L34.7725 5.56201L40.7956 13.7373L46.409 13.6716L44.4522 8.32779Z" fill="#FFDE9B"/>
<path d="M46.4089 13.6716L34.8027 5.57092L37.9587 6.49779L44.4623 8.3175L45.7439 11.942L46.4089 13.6716Z" fill="#FFB961"/>
<path d="M45.7432 11.942L37.958 6.4978L44.4616 8.31752L45.7432 11.942Z" fill="#F3A250"/>
<path d="M36.8781 81.6968C29.9937 82.0593 23.1867 82.0681 16.4629 81.6968L27.0039 79.9506L36.8781 81.6968Z" fill="#F3A250"/>
<path d="M22.3044 81.9721L16.4621 81.6969C8.23893 67.7904 5.22264 51.7885 5.57185 34.1037L5.60363 34.0719C5.60363 34.0719 7.41368 66.9862 22.3044 81.9721Z" fill="#FFD06C"/>
<path d="M31.0469 81.9721L36.8892 81.6969C45.1124 67.7904 48.1287 51.7885 47.7795 34.1037L47.7477 34.0719C47.7477 34.0719 45.9376 66.9862 31.0469 81.9721Z" fill="#FFD06C"/>
<g opacity="0.35">
<path d="M48.4027 22.3879C48.2757 26.9917 47.9265 31.5319 47.2915 35.945L14.8113 64.9012C11.4774 59.186 9.22326 53.4393 7.7627 47.6292L37.2268 21.3718C38.8777 20.7686 41.4178 19.689 45.1007 18.292L48.4027 22.3879Z" fill="white"/>
<path d="M46.3078 41.9141C45.4188 46.4545 44.244 50.8358 42.7201 55.0268L21.257 74.1722C19.6378 72.2037 18.1774 70.2034 16.8438 68.1714L46.3078 41.9141Z" fill="white"/>
</g>
<path d="M17.831 46.6712C17.9072 46.7091 17.9835 46.7472 18.0595 46.7854C17.3885 51.0656 17.8352 51.5858 18.7834 46.9377C18.8979 46.9377 19.0502 46.9377 19.2406 46.8998C21.7172 50.3667 23.8507 52.9193 24.1937 52.767C24.4602 52.5766 22.7459 49.6047 20.3456 46.0615C20.3838 46.0233 20.4217 45.9473 20.4598 45.8329C22.1362 46.0996 23.2791 46.1759 23.3173 45.9852C23.3173 45.8329 22.1743 45.528 20.5742 45.1853C20.6124 45.0327 20.6124 44.8804 20.5742 44.7281C23.7365 42.4801 25.9843 40.537 25.7938 40.2324C25.6034 40.0038 23.0505 41.4516 19.8122 43.6231C19.6599 43.5089 19.5455 43.4326 19.3932 43.3945C19.7851 40.4933 19.4678 40.0467 18.7074 43.2803C18.593 43.2803 18.4788 43.2803 18.3644 43.3566C16.3071 40.5752 14.6307 38.5942 14.364 38.7846C14.1354 38.9751 15.3546 41.1849 17.2977 44.0802C17.1833 44.2328 17.0692 44.3851 17.031 44.5756C15.3546 44.3091 14.1354 44.1947 14.1354 44.3851C14.1354 44.5756 15.3165 44.9186 16.9547 45.2234C16.9929 45.3757 16.9929 45.4901 17.031 45.5662C10.244 50.5325 9.81208 52.0482 17.831 46.6712Z" fill="white"/>
<circle cx="45.5" cy="72.5" r="10.1196" fill="white" stroke="#6F767E" stroke-width="0.76087" stroke-dasharray="1.52 1.52"/>
<path d="M48.125 72.9366H45.9375V75.1241C45.9375 75.2402 45.8914 75.3515 45.8094 75.4335C45.7273 75.5156 45.616 75.5616 45.5 75.5616C45.384 75.5616 45.2727 75.5156 45.1906 75.4335C45.1086 75.3515 45.0625 75.2402 45.0625 75.1241V72.9366H42.875C42.759 72.9366 42.6477 72.8906 42.5656 72.8085C42.4836 72.7265 42.4375 72.6152 42.4375 72.4991C42.4375 72.3831 42.4836 72.2718 42.5656 72.1898C42.6477 72.1077 42.759 72.0616 42.875 72.0616H45.0625V69.8741C45.0625 69.7581 45.1086 69.6468 45.1906 69.5648C45.2727 69.4827 45.384 69.4366 45.5 69.4366C45.616 69.4366 45.7273 69.4827 45.8094 69.5648C45.8914 69.6468 45.9375 69.7581 45.9375 69.8741V72.0616H48.125C48.241 72.0616 48.3523 72.1077 48.4344 72.1898C48.5164 72.2718 48.5625 72.3831 48.5625 72.4991C48.5625 72.6152 48.5164 72.7265 48.4344 72.8085C48.3523 72.8906 48.241 72.9366 48.125 72.9366Z" fill="#6F767E"/>
</svg>
